M48
; DRILL file {KiCad (6.0.7)} date Thu May  9 09:53:30 2024
; FORMAT={-:-/ absolute / metric / decimal}
; #@! TF.CreationDate,2024-05-09T09:53:30-04:00
; #@! TF.GenerationSoftware,Kicad,Pcbnew,(6.0.7)
; #@! TF.FileFunction,Plated,1,2,PTH
FMAT,2
METRIC
; #@! TA.AperFunction,Plated,PTH,ViaDrill
T1C0.400
; #@! TA.AperFunction,Plated,PTH,ComponentDrill
T2C0.800
; #@! TA.AperFunction,Plated,PTH,ComponentDrill
T3C1.000
; #@! TA.AperFunction,Plated,PTH,ComponentDrill
T4C1.016
%
G90
G05
T1
X97.79Y-67.31
X97.79Y-68.58
X97.79Y-69.85
X97.928Y-115.53
X99.198Y-115.53
X100.468Y-115.53
X102.87Y-64.77
X104.14Y-64.77
X105.41Y-64.77
X111.76Y-115.57
X113.03Y-115.57
X114.3Y-115.57
X116.113Y-71.631
X117.874Y-72.626
X131.844Y-85.15
X134.384Y-85.15
X136.924Y-85.15
X148.59Y-110.49
X149.86Y-111.76
X151.13Y-111.76
X152.4Y-111.76
X163.83Y-69.85
X165.1Y-69.85
X173.99Y-107.95
X189.23Y-64.77
X189.23Y-66.04
X189.23Y-67.31
X189.23Y-109.22
X189.23Y-110.49
X189.23Y-111.76
T2
X101.369Y-76.265
X101.369Y-91.505
X103.909Y-76.265
X103.909Y-91.505
X106.449Y-76.265
X106.449Y-91.505
X108.989Y-76.265
X108.989Y-91.505
X111.529Y-76.265
X111.529Y-91.505
X114.069Y-76.265
X114.069Y-91.505
X116.609Y-76.265
X116.609Y-91.505
X119.149Y-76.265
X119.149Y-91.505
X121.689Y-76.265
X121.689Y-91.505
X122.959Y-102.92
X122.959Y-110.54
X124.229Y-76.265
X124.229Y-91.505
X125.499Y-102.92
X125.499Y-110.54
X126.769Y-76.265
X126.769Y-91.505
X128.039Y-102.92
X128.039Y-110.54
X129.309Y-76.265
X129.309Y-91.505
X130.579Y-102.92
X130.579Y-110.54
X131.849Y-76.265
X131.849Y-91.505
X133.119Y-102.92
X133.119Y-110.54
X134.389Y-76.265
X134.389Y-91.505
X135.659Y-102.92
X135.659Y-110.54
X136.929Y-76.265
X136.929Y-91.505
X138.199Y-102.92
X138.199Y-110.54
X139.469Y-76.265
X139.469Y-91.505
X140.739Y-102.92
X140.739Y-110.54
X142.009Y-76.265
X142.009Y-91.505
X143.279Y-102.92
X143.279Y-110.54
X144.549Y-76.265
X144.549Y-91.505
X145.819Y-102.92
X145.819Y-110.54
X147.089Y-76.265
X147.089Y-91.505
X149.629Y-76.265
X149.629Y-91.505
T3
X165.1Y-74.93
X165.1Y-82.53
T4
X107.95Y-66.04
X110.49Y-66.04
X113.03Y-66.04
X115.57Y-66.04
X117.094Y-114.3
X118.11Y-66.04
X119.634Y-114.3
X120.65Y-66.04
X122.174Y-114.3
X123.19Y-66.04
X124.714Y-114.3
X125.73Y-66.04
X127.254Y-114.3
X128.27Y-66.04
X129.794Y-114.3
X130.81Y-66.04
X132.334Y-114.3
X134.874Y-66.04
X134.874Y-114.3
X137.414Y-66.04
X139.954Y-66.04
X139.954Y-114.3
X142.494Y-66.04
X142.494Y-114.3
X145.034Y-66.04
X145.034Y-114.3
X147.574Y-66.04
X147.574Y-114.3
X150.114Y-66.04
X150.114Y-114.3
X152.654Y-66.04
X152.654Y-114.3
X155.194Y-114.3
X157.734Y-66.04
X157.734Y-114.3
X160.274Y-66.04
X162.814Y-66.04
X162.814Y-114.3
X165.354Y-66.04
X165.354Y-114.3
X167.894Y-66.04
X167.894Y-69.769
X167.894Y-114.3
X170.434Y-66.04
X170.434Y-69.769
X170.434Y-114.3
X172.974Y-66.04
X172.974Y-69.769
X172.974Y-114.3
X175.514Y-66.04
X175.514Y-69.769
X175.514Y-114.3
X178.054Y-114.3
X180.594Y-114.3
X183.134Y-66.04
X183.134Y-68.58
X183.134Y-71.12
X183.134Y-73.66
X183.134Y-76.2
X183.134Y-78.74
X183.134Y-81.28
X183.134Y-83.82
X183.134Y-86.36
X183.134Y-88.9
X183.134Y-91.44
X183.134Y-93.98
X183.134Y-96.52
X183.134Y-99.06
X183.134Y-101.6
X183.134Y-104.14
X183.134Y-106.68
X183.134Y-109.22
X185.674Y-66.04
X185.674Y-68.58
X185.674Y-71.12
X185.674Y-73.66
X185.674Y-76.2
X185.674Y-78.74
X185.674Y-81.28
X185.674Y-83.82
X185.674Y-86.36
X185.674Y-88.9
X185.674Y-91.44
X185.674Y-93.98
X185.674Y-96.52
X185.674Y-99.06
X185.674Y-101.6
X185.674Y-104.14
X185.674Y-106.68
X185.674Y-109.22
T0
M30
