%TF.GenerationSoftware,KiCad,Pcbnew,(6.0.7)*%
%TF.CreationDate,2024-05-09T09:54:02-04:00*%
%TF.ProjectId,ard8088,61726438-3038-4382-9e6b-696361645f70,1.1*%
%TF.SameCoordinates,Original*%
%TF.FileFunction,Drillmap*%
%TF.FilePolarity,Positive*%
%FSLAX45Y45*%
G04 Gerber Fmt 4.5, Leading zero omitted, Abs format (unit mm)*
G04 Created by KiCad (PCBNEW (6.0.7)) date 2024-05-09 09:54:02*
%MOMM*%
%LPD*%
G01*
G04 APERTURE LIST*
%ADD10C,0.100000*%
%ADD11C,0.200000*%
%ADD12C,0.040000*%
%ADD13C,0.080000*%
%ADD14C,0.101600*%
G04 APERTURE END LIST*
D10*
X19177000Y-11811000D02*
X9553546Y-11811000D01*
X9553546Y-6223000D01*
X19177000Y-6223000D01*
X19177000Y-11811000D01*
D11*
D12*
X9759000Y-6711000D02*
X9799000Y-6751000D01*
X9799000Y-6711000D02*
X9759000Y-6751000D01*
X9759000Y-6838000D02*
X9799000Y-6878000D01*
X9799000Y-6838000D02*
X9759000Y-6878000D01*
X9759000Y-6965000D02*
X9799000Y-7005000D01*
X9799000Y-6965000D02*
X9759000Y-7005000D01*
X9772780Y-11533032D02*
X9812780Y-11573032D01*
X9812780Y-11533032D02*
X9772780Y-11573032D01*
X9899780Y-11533032D02*
X9939780Y-11573032D01*
X9939780Y-11533032D02*
X9899780Y-11573032D01*
X10026780Y-11533032D02*
X10066780Y-11573032D01*
X10066780Y-11533032D02*
X10026780Y-11573032D01*
X10267000Y-6457000D02*
X10307000Y-6497000D01*
X10307000Y-6457000D02*
X10267000Y-6497000D01*
X10394000Y-6457000D02*
X10434000Y-6497000D01*
X10434000Y-6457000D02*
X10394000Y-6497000D01*
X10521000Y-6457000D02*
X10561000Y-6497000D01*
X10561000Y-6457000D02*
X10521000Y-6497000D01*
X11156000Y-11537000D02*
X11196000Y-11577000D01*
X11196000Y-11537000D02*
X11156000Y-11577000D01*
X11283000Y-11537000D02*
X11323000Y-11577000D01*
X11323000Y-11537000D02*
X11283000Y-11577000D01*
X11410000Y-11537000D02*
X11450000Y-11577000D01*
X11450000Y-11537000D02*
X11410000Y-11577000D01*
X11591257Y-7143085D02*
X11631257Y-7183085D01*
X11631257Y-7143085D02*
X11591257Y-7183085D01*
X11767400Y-7242600D02*
X11807400Y-7282600D01*
X11807400Y-7242600D02*
X11767400Y-7282600D01*
X13164400Y-8495000D02*
X13204400Y-8535000D01*
X13204400Y-8495000D02*
X13164400Y-8535000D01*
X13418400Y-8495000D02*
X13458400Y-8535000D01*
X13458400Y-8495000D02*
X13418400Y-8535000D01*
X13672400Y-8495000D02*
X13712400Y-8535000D01*
X13712400Y-8495000D02*
X13672400Y-8535000D01*
X14839000Y-11029000D02*
X14879000Y-11069000D01*
X14879000Y-11029000D02*
X14839000Y-11069000D01*
X14966000Y-11156000D02*
X15006000Y-11196000D01*
X15006000Y-11156000D02*
X14966000Y-11196000D01*
X15093000Y-11156000D02*
X15133000Y-11196000D01*
X15133000Y-11156000D02*
X15093000Y-11196000D01*
X15220000Y-11156000D02*
X15260000Y-11196000D01*
X15260000Y-11156000D02*
X15220000Y-11196000D01*
X16363000Y-6965000D02*
X16403000Y-7005000D01*
X16403000Y-6965000D02*
X16363000Y-7005000D01*
X16490000Y-6965000D02*
X16530000Y-7005000D01*
X16530000Y-6965000D02*
X16490000Y-7005000D01*
X17379000Y-10775000D02*
X17419000Y-10815000D01*
X17419000Y-10775000D02*
X17379000Y-10815000D01*
X18903000Y-6457000D02*
X18943000Y-6497000D01*
X18943000Y-6457000D02*
X18903000Y-6497000D01*
X18903000Y-6584000D02*
X18943000Y-6624000D01*
X18943000Y-6584000D02*
X18903000Y-6624000D01*
X18903000Y-6711000D02*
X18943000Y-6751000D01*
X18943000Y-6711000D02*
X18903000Y-6751000D01*
X18903000Y-10902000D02*
X18943000Y-10942000D01*
X18943000Y-10902000D02*
X18903000Y-10942000D01*
X18903000Y-11029000D02*
X18943000Y-11069000D01*
X18943000Y-11029000D02*
X18903000Y-11069000D01*
X18903000Y-11156000D02*
X18943000Y-11196000D01*
X18943000Y-11156000D02*
X18903000Y-11196000D01*
D13*
X10176900Y-7626500D02*
G75*
G03*
X10176900Y-7626500I-40000J0D01*
G01*
X10176900Y-9150500D02*
G75*
G03*
X10176900Y-9150500I-40000J0D01*
G01*
X10430900Y-7626500D02*
G75*
G03*
X10430900Y-7626500I-40000J0D01*
G01*
X10430900Y-9150500D02*
G75*
G03*
X10430900Y-9150500I-40000J0D01*
G01*
X10684900Y-7626500D02*
G75*
G03*
X10684900Y-7626500I-40000J0D01*
G01*
X10684900Y-9150500D02*
G75*
G03*
X10684900Y-9150500I-40000J0D01*
G01*
X10938900Y-7626500D02*
G75*
G03*
X10938900Y-7626500I-40000J0D01*
G01*
X10938900Y-9150500D02*
G75*
G03*
X10938900Y-9150500I-40000J0D01*
G01*
X11192900Y-7626500D02*
G75*
G03*
X11192900Y-7626500I-40000J0D01*
G01*
X11192900Y-9150500D02*
G75*
G03*
X11192900Y-9150500I-40000J0D01*
G01*
X11446900Y-7626500D02*
G75*
G03*
X11446900Y-7626500I-40000J0D01*
G01*
X11446900Y-9150500D02*
G75*
G03*
X11446900Y-9150500I-40000J0D01*
G01*
X11700900Y-7626500D02*
G75*
G03*
X11700900Y-7626500I-40000J0D01*
G01*
X11700900Y-9150500D02*
G75*
G03*
X11700900Y-9150500I-40000J0D01*
G01*
X11954900Y-7626500D02*
G75*
G03*
X11954900Y-7626500I-40000J0D01*
G01*
X11954900Y-9150500D02*
G75*
G03*
X11954900Y-9150500I-40000J0D01*
G01*
X12208900Y-7626500D02*
G75*
G03*
X12208900Y-7626500I-40000J0D01*
G01*
X12208900Y-9150500D02*
G75*
G03*
X12208900Y-9150500I-40000J0D01*
G01*
X12335900Y-10292000D02*
G75*
G03*
X12335900Y-10292000I-40000J0D01*
G01*
X12335900Y-11054000D02*
G75*
G03*
X12335900Y-11054000I-40000J0D01*
G01*
X12462900Y-7626500D02*
G75*
G03*
X12462900Y-7626500I-40000J0D01*
G01*
X12462900Y-9150500D02*
G75*
G03*
X12462900Y-9150500I-40000J0D01*
G01*
X12589900Y-10292000D02*
G75*
G03*
X12589900Y-10292000I-40000J0D01*
G01*
X12589900Y-11054000D02*
G75*
G03*
X12589900Y-11054000I-40000J0D01*
G01*
X12716900Y-7626500D02*
G75*
G03*
X12716900Y-7626500I-40000J0D01*
G01*
X12716900Y-9150500D02*
G75*
G03*
X12716900Y-9150500I-40000J0D01*
G01*
X12843900Y-10292000D02*
G75*
G03*
X12843900Y-10292000I-40000J0D01*
G01*
X12843900Y-11054000D02*
G75*
G03*
X12843900Y-11054000I-40000J0D01*
G01*
X12970900Y-7626500D02*
G75*
G03*
X12970900Y-7626500I-40000J0D01*
G01*
X12970900Y-9150500D02*
G75*
G03*
X12970900Y-9150500I-40000J0D01*
G01*
X13097900Y-10292000D02*
G75*
G03*
X13097900Y-10292000I-40000J0D01*
G01*
X13097900Y-11054000D02*
G75*
G03*
X13097900Y-11054000I-40000J0D01*
G01*
X13224900Y-7626500D02*
G75*
G03*
X13224900Y-7626500I-40000J0D01*
G01*
X13224900Y-9150500D02*
G75*
G03*
X13224900Y-9150500I-40000J0D01*
G01*
X13351900Y-10292000D02*
G75*
G03*
X13351900Y-10292000I-40000J0D01*
G01*
X13351900Y-11054000D02*
G75*
G03*
X13351900Y-11054000I-40000J0D01*
G01*
X13478900Y-7626500D02*
G75*
G03*
X13478900Y-7626500I-40000J0D01*
G01*
X13478900Y-9150500D02*
G75*
G03*
X13478900Y-9150500I-40000J0D01*
G01*
X13605900Y-10292000D02*
G75*
G03*
X13605900Y-10292000I-40000J0D01*
G01*
X13605900Y-11054000D02*
G75*
G03*
X13605900Y-11054000I-40000J0D01*
G01*
X13732900Y-7626500D02*
G75*
G03*
X13732900Y-7626500I-40000J0D01*
G01*
X13732900Y-9150500D02*
G75*
G03*
X13732900Y-9150500I-40000J0D01*
G01*
X13859900Y-10292000D02*
G75*
G03*
X13859900Y-10292000I-40000J0D01*
G01*
X13859900Y-11054000D02*
G75*
G03*
X13859900Y-11054000I-40000J0D01*
G01*
X13986900Y-7626500D02*
G75*
G03*
X13986900Y-7626500I-40000J0D01*
G01*
X13986900Y-9150500D02*
G75*
G03*
X13986900Y-9150500I-40000J0D01*
G01*
X14113900Y-10292000D02*
G75*
G03*
X14113900Y-10292000I-40000J0D01*
G01*
X14113900Y-11054000D02*
G75*
G03*
X14113900Y-11054000I-40000J0D01*
G01*
X14240900Y-7626500D02*
G75*
G03*
X14240900Y-7626500I-40000J0D01*
G01*
X14240900Y-9150500D02*
G75*
G03*
X14240900Y-9150500I-40000J0D01*
G01*
X14367900Y-10292000D02*
G75*
G03*
X14367900Y-10292000I-40000J0D01*
G01*
X14367900Y-11054000D02*
G75*
G03*
X14367900Y-11054000I-40000J0D01*
G01*
X14494900Y-7626500D02*
G75*
G03*
X14494900Y-7626500I-40000J0D01*
G01*
X14494900Y-9150500D02*
G75*
G03*
X14494900Y-9150500I-40000J0D01*
G01*
X14621900Y-10292000D02*
G75*
G03*
X14621900Y-10292000I-40000J0D01*
G01*
X14621900Y-11054000D02*
G75*
G03*
X14621900Y-11054000I-40000J0D01*
G01*
X14748900Y-7626500D02*
G75*
G03*
X14748900Y-7626500I-40000J0D01*
G01*
X14748900Y-9150500D02*
G75*
G03*
X14748900Y-9150500I-40000J0D01*
G01*
X15002900Y-7626500D02*
G75*
G03*
X15002900Y-7626500I-40000J0D01*
G01*
X15002900Y-9150500D02*
G75*
G03*
X15002900Y-9150500I-40000J0D01*
G01*
D10*
X16510000Y-7443000D02*
X16510000Y-7543000D01*
X16460000Y-7493000D02*
X16560000Y-7493000D01*
X16510000Y-8203000D02*
X16510000Y-8303000D01*
X16460000Y-8253000D02*
X16560000Y-8253000D01*
D14*
X10830921Y-6639921D02*
X10830921Y-6568079D01*
X10759079Y-6568079D01*
X10759079Y-6639921D01*
X10830921Y-6639921D01*
X11084921Y-6639921D02*
X11084921Y-6568079D01*
X11013079Y-6568079D01*
X11013079Y-6639921D01*
X11084921Y-6639921D01*
X11338921Y-6639921D02*
X11338921Y-6568079D01*
X11267079Y-6568079D01*
X11267079Y-6639921D01*
X11338921Y-6639921D01*
X11592921Y-6639921D02*
X11592921Y-6568079D01*
X11521079Y-6568079D01*
X11521079Y-6639921D01*
X11592921Y-6639921D01*
X11745321Y-11465921D02*
X11745321Y-11394079D01*
X11673479Y-11394079D01*
X11673479Y-11465921D01*
X11745321Y-11465921D01*
X11846921Y-6639921D02*
X11846921Y-6568079D01*
X11775079Y-6568079D01*
X11775079Y-6639921D01*
X11846921Y-6639921D01*
X11999321Y-11465921D02*
X11999321Y-11394079D01*
X11927479Y-11394079D01*
X11927479Y-11465921D01*
X11999321Y-11465921D01*
X12100921Y-6639921D02*
X12100921Y-6568079D01*
X12029079Y-6568079D01*
X12029079Y-6639921D01*
X12100921Y-6639921D01*
X12253321Y-11465921D02*
X12253321Y-11394079D01*
X12181479Y-11394079D01*
X12181479Y-11465921D01*
X12253321Y-11465921D01*
X12354921Y-6639921D02*
X12354921Y-6568079D01*
X12283079Y-6568079D01*
X12283079Y-6639921D01*
X12354921Y-6639921D01*
X12507321Y-11465921D02*
X12507321Y-11394079D01*
X12435479Y-11394079D01*
X12435479Y-11465921D01*
X12507321Y-11465921D01*
X12608921Y-6639921D02*
X12608921Y-6568079D01*
X12537079Y-6568079D01*
X12537079Y-6639921D01*
X12608921Y-6639921D01*
X12761321Y-11465921D02*
X12761321Y-11394079D01*
X12689479Y-11394079D01*
X12689479Y-11465921D01*
X12761321Y-11465921D01*
X12862921Y-6639921D02*
X12862921Y-6568079D01*
X12791079Y-6568079D01*
X12791079Y-6639921D01*
X12862921Y-6639921D01*
X13015321Y-11465921D02*
X13015321Y-11394079D01*
X12943479Y-11394079D01*
X12943479Y-11465921D01*
X13015321Y-11465921D01*
X13116921Y-6639921D02*
X13116921Y-6568079D01*
X13045079Y-6568079D01*
X13045079Y-6639921D01*
X13116921Y-6639921D01*
X13269321Y-11465921D02*
X13269321Y-11394079D01*
X13197479Y-11394079D01*
X13197479Y-11465921D01*
X13269321Y-11465921D01*
X13523321Y-6639921D02*
X13523321Y-6568079D01*
X13451479Y-6568079D01*
X13451479Y-6639921D01*
X13523321Y-6639921D01*
X13523321Y-11465921D02*
X13523321Y-11394079D01*
X13451479Y-11394079D01*
X13451479Y-11465921D01*
X13523321Y-11465921D01*
X13777321Y-6639921D02*
X13777321Y-6568079D01*
X13705479Y-6568079D01*
X13705479Y-6639921D01*
X13777321Y-6639921D01*
X14031321Y-6639921D02*
X14031321Y-6568079D01*
X13959479Y-6568079D01*
X13959479Y-6639921D01*
X14031321Y-6639921D01*
X14031321Y-11465921D02*
X14031321Y-11394079D01*
X13959479Y-11394079D01*
X13959479Y-11465921D01*
X14031321Y-11465921D01*
X14285321Y-6639921D02*
X14285321Y-6568079D01*
X14213479Y-6568079D01*
X14213479Y-6639921D01*
X14285321Y-6639921D01*
X14285321Y-11465921D02*
X14285321Y-11394079D01*
X14213479Y-11394079D01*
X14213479Y-11465921D01*
X14285321Y-11465921D01*
X14539321Y-6639921D02*
X14539321Y-6568079D01*
X14467479Y-6568079D01*
X14467479Y-6639921D01*
X14539321Y-6639921D01*
X14539321Y-11465921D02*
X14539321Y-11394079D01*
X14467479Y-11394079D01*
X14467479Y-11465921D01*
X14539321Y-11465921D01*
X14793321Y-6639921D02*
X14793321Y-6568079D01*
X14721479Y-6568079D01*
X14721479Y-6639921D01*
X14793321Y-6639921D01*
X14793321Y-11465921D02*
X14793321Y-11394079D01*
X14721479Y-11394079D01*
X14721479Y-11465921D01*
X14793321Y-11465921D01*
X15047321Y-6639921D02*
X15047321Y-6568079D01*
X14975479Y-6568079D01*
X14975479Y-6639921D01*
X15047321Y-6639921D01*
X15047321Y-11465921D02*
X15047321Y-11394079D01*
X14975479Y-11394079D01*
X14975479Y-11465921D01*
X15047321Y-11465921D01*
X15301321Y-6639921D02*
X15301321Y-6568079D01*
X15229479Y-6568079D01*
X15229479Y-6639921D01*
X15301321Y-6639921D01*
X15301321Y-11465921D02*
X15301321Y-11394079D01*
X15229479Y-11394079D01*
X15229479Y-11465921D01*
X15301321Y-11465921D01*
X15555321Y-11465921D02*
X15555321Y-11394079D01*
X15483479Y-11394079D01*
X15483479Y-11465921D01*
X15555321Y-11465921D01*
X15809321Y-6639921D02*
X15809321Y-6568079D01*
X15737479Y-6568079D01*
X15737479Y-6639921D01*
X15809321Y-6639921D01*
X15809321Y-11465921D02*
X15809321Y-11394079D01*
X15737479Y-11394079D01*
X15737479Y-11465921D01*
X15809321Y-11465921D01*
X16063321Y-6639921D02*
X16063321Y-6568079D01*
X15991479Y-6568079D01*
X15991479Y-6639921D01*
X16063321Y-6639921D01*
X16317321Y-6639921D02*
X16317321Y-6568079D01*
X16245479Y-6568079D01*
X16245479Y-6639921D01*
X16317321Y-6639921D01*
X16317321Y-11465921D02*
X16317321Y-11394079D01*
X16245479Y-11394079D01*
X16245479Y-11465921D01*
X16317321Y-11465921D01*
X16571321Y-6639921D02*
X16571321Y-6568079D01*
X16499479Y-6568079D01*
X16499479Y-6639921D01*
X16571321Y-6639921D01*
X16571321Y-11465921D02*
X16571321Y-11394079D01*
X16499479Y-11394079D01*
X16499479Y-11465921D01*
X16571321Y-11465921D01*
X16825321Y-6639921D02*
X16825321Y-6568079D01*
X16753479Y-6568079D01*
X16753479Y-6639921D01*
X16825321Y-6639921D01*
X16825321Y-7012844D02*
X16825321Y-6941001D01*
X16753479Y-6941001D01*
X16753479Y-7012844D01*
X16825321Y-7012844D01*
X16825321Y-11465921D02*
X16825321Y-11394079D01*
X16753479Y-11394079D01*
X16753479Y-11465921D01*
X16825321Y-11465921D01*
X17079321Y-6639921D02*
X17079321Y-6568079D01*
X17007479Y-6568079D01*
X17007479Y-6639921D01*
X17079321Y-6639921D01*
X17079321Y-7012844D02*
X17079321Y-6941001D01*
X17007479Y-6941001D01*
X17007479Y-7012844D01*
X17079321Y-7012844D01*
X17079321Y-11465921D02*
X17079321Y-11394079D01*
X17007479Y-11394079D01*
X17007479Y-11465921D01*
X17079321Y-11465921D01*
X17333321Y-6639921D02*
X17333321Y-6568079D01*
X17261479Y-6568079D01*
X17261479Y-6639921D01*
X17333321Y-6639921D01*
X17333321Y-7012844D02*
X17333321Y-6941001D01*
X17261479Y-6941001D01*
X17261479Y-7012844D01*
X17333321Y-7012844D01*
X17333321Y-11465921D02*
X17333321Y-11394079D01*
X17261479Y-11394079D01*
X17261479Y-11465921D01*
X17333321Y-11465921D01*
X17587321Y-6639921D02*
X17587321Y-6568079D01*
X17515479Y-6568079D01*
X17515479Y-6639921D01*
X17587321Y-6639921D01*
X17587321Y-7012844D02*
X17587321Y-6941001D01*
X17515479Y-6941001D01*
X17515479Y-7012844D01*
X17587321Y-7012844D01*
X17587321Y-11465921D02*
X17587321Y-11394079D01*
X17515479Y-11394079D01*
X17515479Y-11465921D01*
X17587321Y-11465921D01*
X17841321Y-11465921D02*
X17841321Y-11394079D01*
X17769479Y-11394079D01*
X17769479Y-11465921D01*
X17841321Y-11465921D01*
X18095321Y-11465921D02*
X18095321Y-11394079D01*
X18023479Y-11394079D01*
X18023479Y-11465921D01*
X18095321Y-11465921D01*
X18349321Y-6639921D02*
X18349321Y-6568079D01*
X18277479Y-6568079D01*
X18277479Y-6639921D01*
X18349321Y-6639921D01*
X18349321Y-6893921D02*
X18349321Y-6822079D01*
X18277479Y-6822079D01*
X18277479Y-6893921D01*
X18349321Y-6893921D01*
X18349321Y-7147921D02*
X18349321Y-7076079D01*
X18277479Y-7076079D01*
X18277479Y-7147921D01*
X18349321Y-7147921D01*
X18349321Y-7401921D02*
X18349321Y-7330079D01*
X18277479Y-7330079D01*
X18277479Y-7401921D01*
X18349321Y-7401921D01*
X18349321Y-7655921D02*
X18349321Y-7584079D01*
X18277479Y-7584079D01*
X18277479Y-7655921D01*
X18349321Y-7655921D01*
X18349321Y-7909921D02*
X18349321Y-7838079D01*
X18277479Y-7838079D01*
X18277479Y-7909921D01*
X18349321Y-7909921D01*
X18349321Y-8163921D02*
X18349321Y-8092079D01*
X18277479Y-8092079D01*
X18277479Y-8163921D01*
X18349321Y-8163921D01*
X18349321Y-8417921D02*
X18349321Y-8346079D01*
X18277479Y-8346079D01*
X18277479Y-8417921D01*
X18349321Y-8417921D01*
X18349321Y-8671921D02*
X18349321Y-8600079D01*
X18277479Y-8600079D01*
X18277479Y-8671921D01*
X18349321Y-8671921D01*
X18349321Y-8925921D02*
X18349321Y-8854079D01*
X18277479Y-8854079D01*
X18277479Y-8925921D01*
X18349321Y-8925921D01*
X18349321Y-9179921D02*
X18349321Y-9108079D01*
X18277479Y-9108079D01*
X18277479Y-9179921D01*
X18349321Y-9179921D01*
X18349321Y-9433921D02*
X18349321Y-9362079D01*
X18277479Y-9362079D01*
X18277479Y-9433921D01*
X18349321Y-9433921D01*
X18349321Y-9687921D02*
X18349321Y-9616079D01*
X18277479Y-9616079D01*
X18277479Y-9687921D01*
X18349321Y-9687921D01*
X18349321Y-9941921D02*
X18349321Y-9870079D01*
X18277479Y-9870079D01*
X18277479Y-9941921D01*
X18349321Y-9941921D01*
X18349321Y-10195921D02*
X18349321Y-10124079D01*
X18277479Y-10124079D01*
X18277479Y-10195921D01*
X18349321Y-10195921D01*
X18349321Y-10449921D02*
X18349321Y-10378079D01*
X18277479Y-10378079D01*
X18277479Y-10449921D01*
X18349321Y-10449921D01*
X18349321Y-10703921D02*
X18349321Y-10632079D01*
X18277479Y-10632079D01*
X18277479Y-10703921D01*
X18349321Y-10703921D01*
X18349321Y-10957921D02*
X18349321Y-10886079D01*
X18277479Y-10886079D01*
X18277479Y-10957921D01*
X18349321Y-10957921D01*
X18603321Y-6639921D02*
X18603321Y-6568079D01*
X18531479Y-6568079D01*
X18531479Y-6639921D01*
X18603321Y-6639921D01*
X18603321Y-6893921D02*
X18603321Y-6822079D01*
X18531479Y-6822079D01*
X18531479Y-6893921D01*
X18603321Y-6893921D01*
X18603321Y-7147921D02*
X18603321Y-7076079D01*
X18531479Y-7076079D01*
X18531479Y-7147921D01*
X18603321Y-7147921D01*
X18603321Y-7401921D02*
X18603321Y-7330079D01*
X18531479Y-7330079D01*
X18531479Y-7401921D01*
X18603321Y-7401921D01*
X18603321Y-7655921D02*
X18603321Y-7584079D01*
X18531479Y-7584079D01*
X18531479Y-7655921D01*
X18603321Y-7655921D01*
X18603321Y-7909921D02*
X18603321Y-7838079D01*
X18531479Y-7838079D01*
X18531479Y-7909921D01*
X18603321Y-7909921D01*
X18603321Y-8163921D02*
X18603321Y-8092079D01*
X18531479Y-8092079D01*
X18531479Y-8163921D01*
X18603321Y-8163921D01*
X18603321Y-8417921D02*
X18603321Y-8346079D01*
X18531479Y-8346079D01*
X18531479Y-8417921D01*
X18603321Y-8417921D01*
X18603321Y-8671921D02*
X18603321Y-8600079D01*
X18531479Y-8600079D01*
X18531479Y-8671921D01*
X18603321Y-8671921D01*
X18603321Y-8925921D02*
X18603321Y-8854079D01*
X18531479Y-8854079D01*
X18531479Y-8925921D01*
X18603321Y-8925921D01*
X18603321Y-9179921D02*
X18603321Y-9108079D01*
X18531479Y-9108079D01*
X18531479Y-9179921D01*
X18603321Y-9179921D01*
X18603321Y-9433921D02*
X18603321Y-9362079D01*
X18531479Y-9362079D01*
X18531479Y-9433921D01*
X18603321Y-9433921D01*
X18603321Y-9687921D02*
X18603321Y-9616079D01*
X18531479Y-9616079D01*
X18531479Y-9687921D01*
X18603321Y-9687921D01*
X18603321Y-9941921D02*
X18603321Y-9870079D01*
X18531479Y-9870079D01*
X18531479Y-9941921D01*
X18603321Y-9941921D01*
X18603321Y-10195921D02*
X18603321Y-10124079D01*
X18531479Y-10124079D01*
X18531479Y-10195921D01*
X18603321Y-10195921D01*
X18603321Y-10449921D02*
X18603321Y-10378079D01*
X18531479Y-10378079D01*
X18531479Y-10449921D01*
X18603321Y-10449921D01*
X18603321Y-10703921D02*
X18603321Y-10632079D01*
X18531479Y-10632079D01*
X18531479Y-10703921D01*
X18603321Y-10703921D01*
X18603321Y-10957921D02*
X18603321Y-10886079D01*
X18531479Y-10886079D01*
X18531479Y-10957921D01*
X18603321Y-10957921D01*
D11*
X9806165Y-12126476D02*
X9806165Y-11926476D01*
X9853784Y-11926476D01*
X9882355Y-11936000D01*
X9901403Y-11955048D01*
X9910927Y-11974095D01*
X9920450Y-12012190D01*
X9920450Y-12040762D01*
X9910927Y-12078857D01*
X9901403Y-12097905D01*
X9882355Y-12116952D01*
X9853784Y-12126476D01*
X9806165Y-12126476D01*
X10006165Y-12126476D02*
X10006165Y-11993143D01*
X10006165Y-12031238D02*
X10015688Y-12012190D01*
X10025212Y-12002667D01*
X10044260Y-11993143D01*
X10063308Y-11993143D01*
X10129974Y-12126476D02*
X10129974Y-11993143D01*
X10129974Y-11926476D02*
X10120450Y-11936000D01*
X10129974Y-11945524D01*
X10139498Y-11936000D01*
X10129974Y-11926476D01*
X10129974Y-11945524D01*
X10253784Y-12126476D02*
X10234736Y-12116952D01*
X10225212Y-12097905D01*
X10225212Y-11926476D01*
X10358546Y-12126476D02*
X10339498Y-12116952D01*
X10329974Y-12097905D01*
X10329974Y-11926476D01*
X10587117Y-12126476D02*
X10587117Y-11926476D01*
X10653784Y-12069333D01*
X10720450Y-11926476D01*
X10720450Y-12126476D01*
X10901403Y-12126476D02*
X10901403Y-12021714D01*
X10891879Y-12002667D01*
X10872831Y-11993143D01*
X10834736Y-11993143D01*
X10815688Y-12002667D01*
X10901403Y-12116952D02*
X10882355Y-12126476D01*
X10834736Y-12126476D01*
X10815688Y-12116952D01*
X10806165Y-12097905D01*
X10806165Y-12078857D01*
X10815688Y-12059809D01*
X10834736Y-12050286D01*
X10882355Y-12050286D01*
X10901403Y-12040762D01*
X10996641Y-11993143D02*
X10996641Y-12193143D01*
X10996641Y-12002667D02*
X11015688Y-11993143D01*
X11053784Y-11993143D01*
X11072831Y-12002667D01*
X11082355Y-12012190D01*
X11091879Y-12031238D01*
X11091879Y-12088381D01*
X11082355Y-12107428D01*
X11072831Y-12116952D01*
X11053784Y-12126476D01*
X11015688Y-12126476D01*
X10996641Y-12116952D01*
X11177593Y-12107428D02*
X11187117Y-12116952D01*
X11177593Y-12126476D01*
X11168069Y-12116952D01*
X11177593Y-12107428D01*
X11177593Y-12126476D01*
X11177593Y-12002667D02*
X11187117Y-12012190D01*
X11177593Y-12021714D01*
X11168069Y-12012190D01*
X11177593Y-12002667D01*
X11177593Y-12021714D01*
D12*
X9508546Y-12436000D02*
X9548546Y-12476000D01*
X9548546Y-12436000D02*
X9508546Y-12476000D01*
D11*
X9844260Y-12346476D02*
X9863308Y-12346476D01*
X9882355Y-12356000D01*
X9891879Y-12365524D01*
X9901403Y-12384571D01*
X9910927Y-12422667D01*
X9910927Y-12470286D01*
X9901403Y-12508381D01*
X9891879Y-12527428D01*
X9882355Y-12536952D01*
X9863308Y-12546476D01*
X9844260Y-12546476D01*
X9825212Y-12536952D01*
X9815688Y-12527428D01*
X9806165Y-12508381D01*
X9796641Y-12470286D01*
X9796641Y-12422667D01*
X9806165Y-12384571D01*
X9815688Y-12365524D01*
X9825212Y-12356000D01*
X9844260Y-12346476D01*
X9996641Y-12527428D02*
X10006165Y-12536952D01*
X9996641Y-12546476D01*
X9987117Y-12536952D01*
X9996641Y-12527428D01*
X9996641Y-12546476D01*
X10177593Y-12413143D02*
X10177593Y-12546476D01*
X10129974Y-12336952D02*
X10082355Y-12479809D01*
X10206165Y-12479809D01*
X10320450Y-12346476D02*
X10339498Y-12346476D01*
X10358546Y-12356000D01*
X10368069Y-12365524D01*
X10377593Y-12384571D01*
X10387117Y-12422667D01*
X10387117Y-12470286D01*
X10377593Y-12508381D01*
X10368069Y-12527428D01*
X10358546Y-12536952D01*
X10339498Y-12546476D01*
X10320450Y-12546476D01*
X10301403Y-12536952D01*
X10291879Y-12527428D01*
X10282355Y-12508381D01*
X10272831Y-12470286D01*
X10272831Y-12422667D01*
X10282355Y-12384571D01*
X10291879Y-12365524D01*
X10301403Y-12356000D01*
X10320450Y-12346476D01*
X10510927Y-12346476D02*
X10529974Y-12346476D01*
X10549022Y-12356000D01*
X10558546Y-12365524D01*
X10568069Y-12384571D01*
X10577593Y-12422667D01*
X10577593Y-12470286D01*
X10568069Y-12508381D01*
X10558546Y-12527428D01*
X10549022Y-12536952D01*
X10529974Y-12546476D01*
X10510927Y-12546476D01*
X10491879Y-12536952D01*
X10482355Y-12527428D01*
X10472831Y-12508381D01*
X10463308Y-12470286D01*
X10463308Y-12422667D01*
X10472831Y-12384571D01*
X10482355Y-12365524D01*
X10491879Y-12356000D01*
X10510927Y-12346476D01*
X10663308Y-12546476D02*
X10663308Y-12413143D01*
X10663308Y-12432190D02*
X10672831Y-12422667D01*
X10691879Y-12413143D01*
X10720450Y-12413143D01*
X10739498Y-12422667D01*
X10749022Y-12441714D01*
X10749022Y-12546476D01*
X10749022Y-12441714D02*
X10758546Y-12422667D01*
X10777593Y-12413143D01*
X10806165Y-12413143D01*
X10825212Y-12422667D01*
X10834736Y-12441714D01*
X10834736Y-12546476D01*
X10929974Y-12546476D02*
X10929974Y-12413143D01*
X10929974Y-12432190D02*
X10939498Y-12422667D01*
X10958546Y-12413143D01*
X10987117Y-12413143D01*
X11006165Y-12422667D01*
X11015688Y-12441714D01*
X11015688Y-12546476D01*
X11015688Y-12441714D02*
X11025212Y-12422667D01*
X11044260Y-12413143D01*
X11072831Y-12413143D01*
X11091879Y-12422667D01*
X11101403Y-12441714D01*
X11101403Y-12546476D01*
X11491879Y-12336952D02*
X11320450Y-12594095D01*
X11749022Y-12346476D02*
X11768069Y-12346476D01*
X11787117Y-12356000D01*
X11796641Y-12365524D01*
X11806165Y-12384571D01*
X11815688Y-12422667D01*
X11815688Y-12470286D01*
X11806165Y-12508381D01*
X11796641Y-12527428D01*
X11787117Y-12536952D01*
X11768069Y-12546476D01*
X11749022Y-12546476D01*
X11729974Y-12536952D01*
X11720450Y-12527428D01*
X11710926Y-12508381D01*
X11701403Y-12470286D01*
X11701403Y-12422667D01*
X11710926Y-12384571D01*
X11720450Y-12365524D01*
X11729974Y-12356000D01*
X11749022Y-12346476D01*
X11901403Y-12527428D02*
X11910926Y-12536952D01*
X11901403Y-12546476D01*
X11891879Y-12536952D01*
X11901403Y-12527428D01*
X11901403Y-12546476D01*
X12034736Y-12346476D02*
X12053784Y-12346476D01*
X12072831Y-12356000D01*
X12082355Y-12365524D01*
X12091879Y-12384571D01*
X12101403Y-12422667D01*
X12101403Y-12470286D01*
X12091879Y-12508381D01*
X12082355Y-12527428D01*
X12072831Y-12536952D01*
X12053784Y-12546476D01*
X12034736Y-12546476D01*
X12015688Y-12536952D01*
X12006165Y-12527428D01*
X11996641Y-12508381D01*
X11987117Y-12470286D01*
X11987117Y-12422667D01*
X11996641Y-12384571D01*
X12006165Y-12365524D01*
X12015688Y-12356000D01*
X12034736Y-12346476D01*
X12291879Y-12546476D02*
X12177593Y-12546476D01*
X12234736Y-12546476D02*
X12234736Y-12346476D01*
X12215688Y-12375048D01*
X12196641Y-12394095D01*
X12177593Y-12403619D01*
X12472831Y-12346476D02*
X12377593Y-12346476D01*
X12368069Y-12441714D01*
X12377593Y-12432190D01*
X12396641Y-12422667D01*
X12444260Y-12422667D01*
X12463307Y-12432190D01*
X12472831Y-12441714D01*
X12482355Y-12460762D01*
X12482355Y-12508381D01*
X12472831Y-12527428D01*
X12463307Y-12536952D01*
X12444260Y-12546476D01*
X12396641Y-12546476D01*
X12377593Y-12536952D01*
X12368069Y-12527428D01*
X12549022Y-12346476D02*
X12682355Y-12346476D01*
X12596641Y-12546476D01*
X12749022Y-12346476D02*
X12749022Y-12384571D01*
X12825212Y-12346476D02*
X12825212Y-12384571D01*
X13120450Y-12622667D02*
X13110926Y-12613143D01*
X13091879Y-12584571D01*
X13082355Y-12565524D01*
X13072831Y-12536952D01*
X13063307Y-12489333D01*
X13063307Y-12451238D01*
X13072831Y-12403619D01*
X13082355Y-12375048D01*
X13091879Y-12356000D01*
X13110926Y-12327428D01*
X13120450Y-12317905D01*
X13177593Y-12346476D02*
X13301403Y-12346476D01*
X13234736Y-12422667D01*
X13263307Y-12422667D01*
X13282355Y-12432190D01*
X13291879Y-12441714D01*
X13301403Y-12460762D01*
X13301403Y-12508381D01*
X13291879Y-12527428D01*
X13282355Y-12536952D01*
X13263307Y-12546476D01*
X13206165Y-12546476D01*
X13187117Y-12536952D01*
X13177593Y-12527428D01*
X13425212Y-12346476D02*
X13444260Y-12346476D01*
X13463307Y-12356000D01*
X13472831Y-12365524D01*
X13482355Y-12384571D01*
X13491879Y-12422667D01*
X13491879Y-12470286D01*
X13482355Y-12508381D01*
X13472831Y-12527428D01*
X13463307Y-12536952D01*
X13444260Y-12546476D01*
X13425212Y-12546476D01*
X13406165Y-12536952D01*
X13396641Y-12527428D01*
X13387117Y-12508381D01*
X13377593Y-12470286D01*
X13377593Y-12422667D01*
X13387117Y-12384571D01*
X13396641Y-12365524D01*
X13406165Y-12356000D01*
X13425212Y-12346476D01*
X13729974Y-12546476D02*
X13729974Y-12346476D01*
X13815688Y-12546476D02*
X13815688Y-12441714D01*
X13806165Y-12422667D01*
X13787117Y-12413143D01*
X13758545Y-12413143D01*
X13739498Y-12422667D01*
X13729974Y-12432190D01*
X13939498Y-12546476D02*
X13920450Y-12536952D01*
X13910926Y-12527428D01*
X13901403Y-12508381D01*
X13901403Y-12451238D01*
X13910926Y-12432190D01*
X13920450Y-12422667D01*
X13939498Y-12413143D01*
X13968069Y-12413143D01*
X13987117Y-12422667D01*
X13996641Y-12432190D01*
X14006165Y-12451238D01*
X14006165Y-12508381D01*
X13996641Y-12527428D01*
X13987117Y-12536952D01*
X13968069Y-12546476D01*
X13939498Y-12546476D01*
X14120450Y-12546476D02*
X14101403Y-12536952D01*
X14091879Y-12517905D01*
X14091879Y-12346476D01*
X14272831Y-12536952D02*
X14253784Y-12546476D01*
X14215688Y-12546476D01*
X14196641Y-12536952D01*
X14187117Y-12517905D01*
X14187117Y-12441714D01*
X14196641Y-12422667D01*
X14215688Y-12413143D01*
X14253784Y-12413143D01*
X14272831Y-12422667D01*
X14282355Y-12441714D01*
X14282355Y-12460762D01*
X14187117Y-12479809D01*
X14358545Y-12536952D02*
X14377593Y-12546476D01*
X14415688Y-12546476D01*
X14434736Y-12536952D01*
X14444260Y-12517905D01*
X14444260Y-12508381D01*
X14434736Y-12489333D01*
X14415688Y-12479809D01*
X14387117Y-12479809D01*
X14368069Y-12470286D01*
X14358545Y-12451238D01*
X14358545Y-12441714D01*
X14368069Y-12422667D01*
X14387117Y-12413143D01*
X14415688Y-12413143D01*
X14434736Y-12422667D01*
X14510926Y-12622667D02*
X14520450Y-12613143D01*
X14539498Y-12584571D01*
X14549022Y-12565524D01*
X14558545Y-12536952D01*
X14568069Y-12489333D01*
X14568069Y-12451238D01*
X14558545Y-12403619D01*
X14549022Y-12375048D01*
X14539498Y-12356000D01*
X14520450Y-12327428D01*
X14510926Y-12317905D01*
D13*
X9548546Y-12720000D02*
G75*
G03*
X9548546Y-12720000I-40000J0D01*
G01*
D11*
X9844260Y-12610476D02*
X9863308Y-12610476D01*
X9882355Y-12620000D01*
X9891879Y-12629524D01*
X9901403Y-12648571D01*
X9910927Y-12686667D01*
X9910927Y-12734286D01*
X9901403Y-12772381D01*
X9891879Y-12791428D01*
X9882355Y-12800952D01*
X9863308Y-12810476D01*
X9844260Y-12810476D01*
X9825212Y-12800952D01*
X9815688Y-12791428D01*
X9806165Y-12772381D01*
X9796641Y-12734286D01*
X9796641Y-12686667D01*
X9806165Y-12648571D01*
X9815688Y-12629524D01*
X9825212Y-12620000D01*
X9844260Y-12610476D01*
X9996641Y-12791428D02*
X10006165Y-12800952D01*
X9996641Y-12810476D01*
X9987117Y-12800952D01*
X9996641Y-12791428D01*
X9996641Y-12810476D01*
X10120450Y-12696190D02*
X10101403Y-12686667D01*
X10091879Y-12677143D01*
X10082355Y-12658095D01*
X10082355Y-12648571D01*
X10091879Y-12629524D01*
X10101403Y-12620000D01*
X10120450Y-12610476D01*
X10158546Y-12610476D01*
X10177593Y-12620000D01*
X10187117Y-12629524D01*
X10196641Y-12648571D01*
X10196641Y-12658095D01*
X10187117Y-12677143D01*
X10177593Y-12686667D01*
X10158546Y-12696190D01*
X10120450Y-12696190D01*
X10101403Y-12705714D01*
X10091879Y-12715238D01*
X10082355Y-12734286D01*
X10082355Y-12772381D01*
X10091879Y-12791428D01*
X10101403Y-12800952D01*
X10120450Y-12810476D01*
X10158546Y-12810476D01*
X10177593Y-12800952D01*
X10187117Y-12791428D01*
X10196641Y-12772381D01*
X10196641Y-12734286D01*
X10187117Y-12715238D01*
X10177593Y-12705714D01*
X10158546Y-12696190D01*
X10320450Y-12610476D02*
X10339498Y-12610476D01*
X10358546Y-12620000D01*
X10368069Y-12629524D01*
X10377593Y-12648571D01*
X10387117Y-12686667D01*
X10387117Y-12734286D01*
X10377593Y-12772381D01*
X10368069Y-12791428D01*
X10358546Y-12800952D01*
X10339498Y-12810476D01*
X10320450Y-12810476D01*
X10301403Y-12800952D01*
X10291879Y-12791428D01*
X10282355Y-12772381D01*
X10272831Y-12734286D01*
X10272831Y-12686667D01*
X10282355Y-12648571D01*
X10291879Y-12629524D01*
X10301403Y-12620000D01*
X10320450Y-12610476D01*
X10510927Y-12610476D02*
X10529974Y-12610476D01*
X10549022Y-12620000D01*
X10558546Y-12629524D01*
X10568069Y-12648571D01*
X10577593Y-12686667D01*
X10577593Y-12734286D01*
X10568069Y-12772381D01*
X10558546Y-12791428D01*
X10549022Y-12800952D01*
X10529974Y-12810476D01*
X10510927Y-12810476D01*
X10491879Y-12800952D01*
X10482355Y-12791428D01*
X10472831Y-12772381D01*
X10463308Y-12734286D01*
X10463308Y-12686667D01*
X10472831Y-12648571D01*
X10482355Y-12629524D01*
X10491879Y-12620000D01*
X10510927Y-12610476D01*
X10663308Y-12810476D02*
X10663308Y-12677143D01*
X10663308Y-12696190D02*
X10672831Y-12686667D01*
X10691879Y-12677143D01*
X10720450Y-12677143D01*
X10739498Y-12686667D01*
X10749022Y-12705714D01*
X10749022Y-12810476D01*
X10749022Y-12705714D02*
X10758546Y-12686667D01*
X10777593Y-12677143D01*
X10806165Y-12677143D01*
X10825212Y-12686667D01*
X10834736Y-12705714D01*
X10834736Y-12810476D01*
X10929974Y-12810476D02*
X10929974Y-12677143D01*
X10929974Y-12696190D02*
X10939498Y-12686667D01*
X10958546Y-12677143D01*
X10987117Y-12677143D01*
X11006165Y-12686667D01*
X11015688Y-12705714D01*
X11015688Y-12810476D01*
X11015688Y-12705714D02*
X11025212Y-12686667D01*
X11044260Y-12677143D01*
X11072831Y-12677143D01*
X11091879Y-12686667D01*
X11101403Y-12705714D01*
X11101403Y-12810476D01*
X11491879Y-12600952D02*
X11320450Y-12858095D01*
X11749022Y-12610476D02*
X11768069Y-12610476D01*
X11787117Y-12620000D01*
X11796641Y-12629524D01*
X11806165Y-12648571D01*
X11815688Y-12686667D01*
X11815688Y-12734286D01*
X11806165Y-12772381D01*
X11796641Y-12791428D01*
X11787117Y-12800952D01*
X11768069Y-12810476D01*
X11749022Y-12810476D01*
X11729974Y-12800952D01*
X11720450Y-12791428D01*
X11710926Y-12772381D01*
X11701403Y-12734286D01*
X11701403Y-12686667D01*
X11710926Y-12648571D01*
X11720450Y-12629524D01*
X11729974Y-12620000D01*
X11749022Y-12610476D01*
X11901403Y-12791428D02*
X11910926Y-12800952D01*
X11901403Y-12810476D01*
X11891879Y-12800952D01*
X11901403Y-12791428D01*
X11901403Y-12810476D01*
X12034736Y-12610476D02*
X12053784Y-12610476D01*
X12072831Y-12620000D01*
X12082355Y-12629524D01*
X12091879Y-12648571D01*
X12101403Y-12686667D01*
X12101403Y-12734286D01*
X12091879Y-12772381D01*
X12082355Y-12791428D01*
X12072831Y-12800952D01*
X12053784Y-12810476D01*
X12034736Y-12810476D01*
X12015688Y-12800952D01*
X12006165Y-12791428D01*
X11996641Y-12772381D01*
X11987117Y-12734286D01*
X11987117Y-12686667D01*
X11996641Y-12648571D01*
X12006165Y-12629524D01*
X12015688Y-12620000D01*
X12034736Y-12610476D01*
X12168069Y-12610476D02*
X12291879Y-12610476D01*
X12225212Y-12686667D01*
X12253784Y-12686667D01*
X12272831Y-12696190D01*
X12282355Y-12705714D01*
X12291879Y-12724762D01*
X12291879Y-12772381D01*
X12282355Y-12791428D01*
X12272831Y-12800952D01*
X12253784Y-12810476D01*
X12196641Y-12810476D01*
X12177593Y-12800952D01*
X12168069Y-12791428D01*
X12482355Y-12810476D02*
X12368069Y-12810476D01*
X12425212Y-12810476D02*
X12425212Y-12610476D01*
X12406165Y-12639048D01*
X12387117Y-12658095D01*
X12368069Y-12667619D01*
X12663307Y-12610476D02*
X12568069Y-12610476D01*
X12558545Y-12705714D01*
X12568069Y-12696190D01*
X12587117Y-12686667D01*
X12634736Y-12686667D01*
X12653784Y-12696190D01*
X12663307Y-12705714D01*
X12672831Y-12724762D01*
X12672831Y-12772381D01*
X12663307Y-12791428D01*
X12653784Y-12800952D01*
X12634736Y-12810476D01*
X12587117Y-12810476D01*
X12568069Y-12800952D01*
X12558545Y-12791428D01*
X12749022Y-12610476D02*
X12749022Y-12648571D01*
X12825212Y-12610476D02*
X12825212Y-12648571D01*
X13120450Y-12886667D02*
X13110926Y-12877143D01*
X13091879Y-12848571D01*
X13082355Y-12829524D01*
X13072831Y-12800952D01*
X13063307Y-12753333D01*
X13063307Y-12715238D01*
X13072831Y-12667619D01*
X13082355Y-12639048D01*
X13091879Y-12620000D01*
X13110926Y-12591428D01*
X13120450Y-12581905D01*
X13282355Y-12610476D02*
X13244260Y-12610476D01*
X13225212Y-12620000D01*
X13215688Y-12629524D01*
X13196641Y-12658095D01*
X13187117Y-12696190D01*
X13187117Y-12772381D01*
X13196641Y-12791428D01*
X13206165Y-12800952D01*
X13225212Y-12810476D01*
X13263307Y-12810476D01*
X13282355Y-12800952D01*
X13291879Y-12791428D01*
X13301403Y-12772381D01*
X13301403Y-12724762D01*
X13291879Y-12705714D01*
X13282355Y-12696190D01*
X13263307Y-12686667D01*
X13225212Y-12686667D01*
X13206165Y-12696190D01*
X13196641Y-12705714D01*
X13187117Y-12724762D01*
X13425212Y-12610476D02*
X13444260Y-12610476D01*
X13463307Y-12620000D01*
X13472831Y-12629524D01*
X13482355Y-12648571D01*
X13491879Y-12686667D01*
X13491879Y-12734286D01*
X13482355Y-12772381D01*
X13472831Y-12791428D01*
X13463307Y-12800952D01*
X13444260Y-12810476D01*
X13425212Y-12810476D01*
X13406165Y-12800952D01*
X13396641Y-12791428D01*
X13387117Y-12772381D01*
X13377593Y-12734286D01*
X13377593Y-12686667D01*
X13387117Y-12648571D01*
X13396641Y-12629524D01*
X13406165Y-12620000D01*
X13425212Y-12610476D01*
X13729974Y-12810476D02*
X13729974Y-12610476D01*
X13815688Y-12810476D02*
X13815688Y-12705714D01*
X13806165Y-12686667D01*
X13787117Y-12677143D01*
X13758545Y-12677143D01*
X13739498Y-12686667D01*
X13729974Y-12696190D01*
X13939498Y-12810476D02*
X13920450Y-12800952D01*
X13910926Y-12791428D01*
X13901403Y-12772381D01*
X13901403Y-12715238D01*
X13910926Y-12696190D01*
X13920450Y-12686667D01*
X13939498Y-12677143D01*
X13968069Y-12677143D01*
X13987117Y-12686667D01*
X13996641Y-12696190D01*
X14006165Y-12715238D01*
X14006165Y-12772381D01*
X13996641Y-12791428D01*
X13987117Y-12800952D01*
X13968069Y-12810476D01*
X13939498Y-12810476D01*
X14120450Y-12810476D02*
X14101403Y-12800952D01*
X14091879Y-12781905D01*
X14091879Y-12610476D01*
X14272831Y-12800952D02*
X14253784Y-12810476D01*
X14215688Y-12810476D01*
X14196641Y-12800952D01*
X14187117Y-12781905D01*
X14187117Y-12705714D01*
X14196641Y-12686667D01*
X14215688Y-12677143D01*
X14253784Y-12677143D01*
X14272831Y-12686667D01*
X14282355Y-12705714D01*
X14282355Y-12724762D01*
X14187117Y-12743809D01*
X14358545Y-12800952D02*
X14377593Y-12810476D01*
X14415688Y-12810476D01*
X14434736Y-12800952D01*
X14444260Y-12781905D01*
X14444260Y-12772381D01*
X14434736Y-12753333D01*
X14415688Y-12743809D01*
X14387117Y-12743809D01*
X14368069Y-12734286D01*
X14358545Y-12715238D01*
X14358545Y-12705714D01*
X14368069Y-12686667D01*
X14387117Y-12677143D01*
X14415688Y-12677143D01*
X14434736Y-12686667D01*
X14510926Y-12886667D02*
X14520450Y-12877143D01*
X14539498Y-12848571D01*
X14549022Y-12829524D01*
X14558545Y-12800952D01*
X14568069Y-12753333D01*
X14568069Y-12715238D01*
X14558545Y-12667619D01*
X14549022Y-12639048D01*
X14539498Y-12620000D01*
X14520450Y-12591428D01*
X14510926Y-12581905D01*
D10*
X9498546Y-12934000D02*
X9498546Y-13034000D01*
X9448546Y-12984000D02*
X9548546Y-12984000D01*
D11*
X9910927Y-13074476D02*
X9796641Y-13074476D01*
X9853784Y-13074476D02*
X9853784Y-12874476D01*
X9834736Y-12903048D01*
X9815688Y-12922095D01*
X9796641Y-12931619D01*
X9996641Y-13055428D02*
X10006165Y-13064952D01*
X9996641Y-13074476D01*
X9987117Y-13064952D01*
X9996641Y-13055428D01*
X9996641Y-13074476D01*
X10129974Y-12874476D02*
X10149022Y-12874476D01*
X10168069Y-12884000D01*
X10177593Y-12893524D01*
X10187117Y-12912571D01*
X10196641Y-12950667D01*
X10196641Y-12998286D01*
X10187117Y-13036381D01*
X10177593Y-13055428D01*
X10168069Y-13064952D01*
X10149022Y-13074476D01*
X10129974Y-13074476D01*
X10110927Y-13064952D01*
X10101403Y-13055428D01*
X10091879Y-13036381D01*
X10082355Y-12998286D01*
X10082355Y-12950667D01*
X10091879Y-12912571D01*
X10101403Y-12893524D01*
X10110927Y-12884000D01*
X10129974Y-12874476D01*
X10320450Y-12874476D02*
X10339498Y-12874476D01*
X10358546Y-12884000D01*
X10368069Y-12893524D01*
X10377593Y-12912571D01*
X10387117Y-12950667D01*
X10387117Y-12998286D01*
X10377593Y-13036381D01*
X10368069Y-13055428D01*
X10358546Y-13064952D01*
X10339498Y-13074476D01*
X10320450Y-13074476D01*
X10301403Y-13064952D01*
X10291879Y-13055428D01*
X10282355Y-13036381D01*
X10272831Y-12998286D01*
X10272831Y-12950667D01*
X10282355Y-12912571D01*
X10291879Y-12893524D01*
X10301403Y-12884000D01*
X10320450Y-12874476D01*
X10510927Y-12874476D02*
X10529974Y-12874476D01*
X10549022Y-12884000D01*
X10558546Y-12893524D01*
X10568069Y-12912571D01*
X10577593Y-12950667D01*
X10577593Y-12998286D01*
X10568069Y-13036381D01*
X10558546Y-13055428D01*
X10549022Y-13064952D01*
X10529974Y-13074476D01*
X10510927Y-13074476D01*
X10491879Y-13064952D01*
X10482355Y-13055428D01*
X10472831Y-13036381D01*
X10463308Y-12998286D01*
X10463308Y-12950667D01*
X10472831Y-12912571D01*
X10482355Y-12893524D01*
X10491879Y-12884000D01*
X10510927Y-12874476D01*
X10663308Y-13074476D02*
X10663308Y-12941143D01*
X10663308Y-12960190D02*
X10672831Y-12950667D01*
X10691879Y-12941143D01*
X10720450Y-12941143D01*
X10739498Y-12950667D01*
X10749022Y-12969714D01*
X10749022Y-13074476D01*
X10749022Y-12969714D02*
X10758546Y-12950667D01*
X10777593Y-12941143D01*
X10806165Y-12941143D01*
X10825212Y-12950667D01*
X10834736Y-12969714D01*
X10834736Y-13074476D01*
X10929974Y-13074476D02*
X10929974Y-12941143D01*
X10929974Y-12960190D02*
X10939498Y-12950667D01*
X10958546Y-12941143D01*
X10987117Y-12941143D01*
X11006165Y-12950667D01*
X11015688Y-12969714D01*
X11015688Y-13074476D01*
X11015688Y-12969714D02*
X11025212Y-12950667D01*
X11044260Y-12941143D01*
X11072831Y-12941143D01*
X11091879Y-12950667D01*
X11101403Y-12969714D01*
X11101403Y-13074476D01*
X11491879Y-12864952D02*
X11320450Y-13122095D01*
X11749022Y-12874476D02*
X11768069Y-12874476D01*
X11787117Y-12884000D01*
X11796641Y-12893524D01*
X11806165Y-12912571D01*
X11815688Y-12950667D01*
X11815688Y-12998286D01*
X11806165Y-13036381D01*
X11796641Y-13055428D01*
X11787117Y-13064952D01*
X11768069Y-13074476D01*
X11749022Y-13074476D01*
X11729974Y-13064952D01*
X11720450Y-13055428D01*
X11710926Y-13036381D01*
X11701403Y-12998286D01*
X11701403Y-12950667D01*
X11710926Y-12912571D01*
X11720450Y-12893524D01*
X11729974Y-12884000D01*
X11749022Y-12874476D01*
X11901403Y-13055428D02*
X11910926Y-13064952D01*
X11901403Y-13074476D01*
X11891879Y-13064952D01*
X11901403Y-13055428D01*
X11901403Y-13074476D01*
X12034736Y-12874476D02*
X12053784Y-12874476D01*
X12072831Y-12884000D01*
X12082355Y-12893524D01*
X12091879Y-12912571D01*
X12101403Y-12950667D01*
X12101403Y-12998286D01*
X12091879Y-13036381D01*
X12082355Y-13055428D01*
X12072831Y-13064952D01*
X12053784Y-13074476D01*
X12034736Y-13074476D01*
X12015688Y-13064952D01*
X12006165Y-13055428D01*
X11996641Y-13036381D01*
X11987117Y-12998286D01*
X11987117Y-12950667D01*
X11996641Y-12912571D01*
X12006165Y-12893524D01*
X12015688Y-12884000D01*
X12034736Y-12874476D01*
X12168069Y-12874476D02*
X12291879Y-12874476D01*
X12225212Y-12950667D01*
X12253784Y-12950667D01*
X12272831Y-12960190D01*
X12282355Y-12969714D01*
X12291879Y-12988762D01*
X12291879Y-13036381D01*
X12282355Y-13055428D01*
X12272831Y-13064952D01*
X12253784Y-13074476D01*
X12196641Y-13074476D01*
X12177593Y-13064952D01*
X12168069Y-13055428D01*
X12387117Y-13074476D02*
X12425212Y-13074476D01*
X12444260Y-13064952D01*
X12453784Y-13055428D01*
X12472831Y-13026857D01*
X12482355Y-12988762D01*
X12482355Y-12912571D01*
X12472831Y-12893524D01*
X12463307Y-12884000D01*
X12444260Y-12874476D01*
X12406165Y-12874476D01*
X12387117Y-12884000D01*
X12377593Y-12893524D01*
X12368069Y-12912571D01*
X12368069Y-12960190D01*
X12377593Y-12979238D01*
X12387117Y-12988762D01*
X12406165Y-12998286D01*
X12444260Y-12998286D01*
X12463307Y-12988762D01*
X12472831Y-12979238D01*
X12482355Y-12960190D01*
X12653784Y-12941143D02*
X12653784Y-13074476D01*
X12606165Y-12864952D02*
X12558545Y-13007809D01*
X12682355Y-13007809D01*
X12749022Y-12874476D02*
X12749022Y-12912571D01*
X12825212Y-12874476D02*
X12825212Y-12912571D01*
X13120450Y-13150667D02*
X13110926Y-13141143D01*
X13091879Y-13112571D01*
X13082355Y-13093524D01*
X13072831Y-13064952D01*
X13063307Y-13017333D01*
X13063307Y-12979238D01*
X13072831Y-12931619D01*
X13082355Y-12903048D01*
X13091879Y-12884000D01*
X13110926Y-12855428D01*
X13120450Y-12845905D01*
X13187117Y-12893524D02*
X13196641Y-12884000D01*
X13215688Y-12874476D01*
X13263307Y-12874476D01*
X13282355Y-12884000D01*
X13291879Y-12893524D01*
X13301403Y-12912571D01*
X13301403Y-12931619D01*
X13291879Y-12960190D01*
X13177593Y-13074476D01*
X13301403Y-13074476D01*
X13539498Y-13074476D02*
X13539498Y-12874476D01*
X13625212Y-13074476D02*
X13625212Y-12969714D01*
X13615688Y-12950667D01*
X13596641Y-12941143D01*
X13568069Y-12941143D01*
X13549022Y-12950667D01*
X13539498Y-12960190D01*
X13749022Y-13074476D02*
X13729974Y-13064952D01*
X13720450Y-13055428D01*
X13710926Y-13036381D01*
X13710926Y-12979238D01*
X13720450Y-12960190D01*
X13729974Y-12950667D01*
X13749022Y-12941143D01*
X13777593Y-12941143D01*
X13796641Y-12950667D01*
X13806165Y-12960190D01*
X13815688Y-12979238D01*
X13815688Y-13036381D01*
X13806165Y-13055428D01*
X13796641Y-13064952D01*
X13777593Y-13074476D01*
X13749022Y-13074476D01*
X13929974Y-13074476D02*
X13910926Y-13064952D01*
X13901403Y-13045905D01*
X13901403Y-12874476D01*
X14082355Y-13064952D02*
X14063307Y-13074476D01*
X14025212Y-13074476D01*
X14006165Y-13064952D01*
X13996641Y-13045905D01*
X13996641Y-12969714D01*
X14006165Y-12950667D01*
X14025212Y-12941143D01*
X14063307Y-12941143D01*
X14082355Y-12950667D01*
X14091879Y-12969714D01*
X14091879Y-12988762D01*
X13996641Y-13007809D01*
X14168069Y-13064952D02*
X14187117Y-13074476D01*
X14225212Y-13074476D01*
X14244260Y-13064952D01*
X14253784Y-13045905D01*
X14253784Y-13036381D01*
X14244260Y-13017333D01*
X14225212Y-13007809D01*
X14196641Y-13007809D01*
X14177593Y-12998286D01*
X14168069Y-12979238D01*
X14168069Y-12969714D01*
X14177593Y-12950667D01*
X14196641Y-12941143D01*
X14225212Y-12941143D01*
X14244260Y-12950667D01*
X14320450Y-13150667D02*
X14329974Y-13141143D01*
X14349022Y-13112571D01*
X14358545Y-13093524D01*
X14368069Y-13064952D01*
X14377593Y-13017333D01*
X14377593Y-12979238D01*
X14368069Y-12931619D01*
X14358545Y-12903048D01*
X14349022Y-12884000D01*
X14329974Y-12855428D01*
X14320450Y-12845905D01*
D14*
X9533667Y-13283921D02*
X9533667Y-13212079D01*
X9461824Y-13212079D01*
X9461824Y-13283921D01*
X9533667Y-13283921D01*
D11*
X9910927Y-13338476D02*
X9796641Y-13338476D01*
X9853784Y-13338476D02*
X9853784Y-13138476D01*
X9834736Y-13167048D01*
X9815688Y-13186095D01*
X9796641Y-13195619D01*
X9996641Y-13319428D02*
X10006165Y-13328952D01*
X9996641Y-13338476D01*
X9987117Y-13328952D01*
X9996641Y-13319428D01*
X9996641Y-13338476D01*
X10129974Y-13138476D02*
X10149022Y-13138476D01*
X10168069Y-13148000D01*
X10177593Y-13157524D01*
X10187117Y-13176571D01*
X10196641Y-13214667D01*
X10196641Y-13262286D01*
X10187117Y-13300381D01*
X10177593Y-13319428D01*
X10168069Y-13328952D01*
X10149022Y-13338476D01*
X10129974Y-13338476D01*
X10110927Y-13328952D01*
X10101403Y-13319428D01*
X10091879Y-13300381D01*
X10082355Y-13262286D01*
X10082355Y-13214667D01*
X10091879Y-13176571D01*
X10101403Y-13157524D01*
X10110927Y-13148000D01*
X10129974Y-13138476D01*
X10387117Y-13338476D02*
X10272831Y-13338476D01*
X10329974Y-13338476D02*
X10329974Y-13138476D01*
X10310927Y-13167048D01*
X10291879Y-13186095D01*
X10272831Y-13195619D01*
X10558546Y-13138476D02*
X10520450Y-13138476D01*
X10501403Y-13148000D01*
X10491879Y-13157524D01*
X10472831Y-13186095D01*
X10463308Y-13224190D01*
X10463308Y-13300381D01*
X10472831Y-13319428D01*
X10482355Y-13328952D01*
X10501403Y-13338476D01*
X10539498Y-13338476D01*
X10558546Y-13328952D01*
X10568069Y-13319428D01*
X10577593Y-13300381D01*
X10577593Y-13252762D01*
X10568069Y-13233714D01*
X10558546Y-13224190D01*
X10539498Y-13214667D01*
X10501403Y-13214667D01*
X10482355Y-13224190D01*
X10472831Y-13233714D01*
X10463308Y-13252762D01*
X10663308Y-13338476D02*
X10663308Y-13205143D01*
X10663308Y-13224190D02*
X10672831Y-13214667D01*
X10691879Y-13205143D01*
X10720450Y-13205143D01*
X10739498Y-13214667D01*
X10749022Y-13233714D01*
X10749022Y-13338476D01*
X10749022Y-13233714D02*
X10758546Y-13214667D01*
X10777593Y-13205143D01*
X10806165Y-13205143D01*
X10825212Y-13214667D01*
X10834736Y-13233714D01*
X10834736Y-13338476D01*
X10929974Y-13338476D02*
X10929974Y-13205143D01*
X10929974Y-13224190D02*
X10939498Y-13214667D01*
X10958546Y-13205143D01*
X10987117Y-13205143D01*
X11006165Y-13214667D01*
X11015688Y-13233714D01*
X11015688Y-13338476D01*
X11015688Y-13233714D02*
X11025212Y-13214667D01*
X11044260Y-13205143D01*
X11072831Y-13205143D01*
X11091879Y-13214667D01*
X11101403Y-13233714D01*
X11101403Y-13338476D01*
X11491879Y-13128952D02*
X11320450Y-13386095D01*
X11749022Y-13138476D02*
X11768069Y-13138476D01*
X11787117Y-13148000D01*
X11796641Y-13157524D01*
X11806165Y-13176571D01*
X11815688Y-13214667D01*
X11815688Y-13262286D01*
X11806165Y-13300381D01*
X11796641Y-13319428D01*
X11787117Y-13328952D01*
X11768069Y-13338476D01*
X11749022Y-13338476D01*
X11729974Y-13328952D01*
X11720450Y-13319428D01*
X11710926Y-13300381D01*
X11701403Y-13262286D01*
X11701403Y-13214667D01*
X11710926Y-13176571D01*
X11720450Y-13157524D01*
X11729974Y-13148000D01*
X11749022Y-13138476D01*
X11901403Y-13319428D02*
X11910926Y-13328952D01*
X11901403Y-13338476D01*
X11891879Y-13328952D01*
X11901403Y-13319428D01*
X11901403Y-13338476D01*
X12034736Y-13138476D02*
X12053784Y-13138476D01*
X12072831Y-13148000D01*
X12082355Y-13157524D01*
X12091879Y-13176571D01*
X12101403Y-13214667D01*
X12101403Y-13262286D01*
X12091879Y-13300381D01*
X12082355Y-13319428D01*
X12072831Y-13328952D01*
X12053784Y-13338476D01*
X12034736Y-13338476D01*
X12015688Y-13328952D01*
X12006165Y-13319428D01*
X11996641Y-13300381D01*
X11987117Y-13262286D01*
X11987117Y-13214667D01*
X11996641Y-13176571D01*
X12006165Y-13157524D01*
X12015688Y-13148000D01*
X12034736Y-13138476D01*
X12272831Y-13205143D02*
X12272831Y-13338476D01*
X12225212Y-13128952D02*
X12177593Y-13271809D01*
X12301403Y-13271809D01*
X12415688Y-13138476D02*
X12434736Y-13138476D01*
X12453784Y-13148000D01*
X12463307Y-13157524D01*
X12472831Y-13176571D01*
X12482355Y-13214667D01*
X12482355Y-13262286D01*
X12472831Y-13300381D01*
X12463307Y-13319428D01*
X12453784Y-13328952D01*
X12434736Y-13338476D01*
X12415688Y-13338476D01*
X12396641Y-13328952D01*
X12387117Y-13319428D01*
X12377593Y-13300381D01*
X12368069Y-13262286D01*
X12368069Y-13214667D01*
X12377593Y-13176571D01*
X12387117Y-13157524D01*
X12396641Y-13148000D01*
X12415688Y-13138476D01*
X12606165Y-13138476D02*
X12625212Y-13138476D01*
X12644260Y-13148000D01*
X12653784Y-13157524D01*
X12663307Y-13176571D01*
X12672831Y-13214667D01*
X12672831Y-13262286D01*
X12663307Y-13300381D01*
X12653784Y-13319428D01*
X12644260Y-13328952D01*
X12625212Y-13338476D01*
X12606165Y-13338476D01*
X12587117Y-13328952D01*
X12577593Y-13319428D01*
X12568069Y-13300381D01*
X12558545Y-13262286D01*
X12558545Y-13214667D01*
X12568069Y-13176571D01*
X12577593Y-13157524D01*
X12587117Y-13148000D01*
X12606165Y-13138476D01*
X12749022Y-13138476D02*
X12749022Y-13176571D01*
X12825212Y-13138476D02*
X12825212Y-13176571D01*
X13120450Y-13414667D02*
X13110926Y-13405143D01*
X13091879Y-13376571D01*
X13082355Y-13357524D01*
X13072831Y-13328952D01*
X13063307Y-13281333D01*
X13063307Y-13243238D01*
X13072831Y-13195619D01*
X13082355Y-13167048D01*
X13091879Y-13148000D01*
X13110926Y-13119428D01*
X13120450Y-13109905D01*
X13206165Y-13338476D02*
X13244260Y-13338476D01*
X13263307Y-13328952D01*
X13272831Y-13319428D01*
X13291879Y-13290857D01*
X13301403Y-13252762D01*
X13301403Y-13176571D01*
X13291879Y-13157524D01*
X13282355Y-13148000D01*
X13263307Y-13138476D01*
X13225212Y-13138476D01*
X13206165Y-13148000D01*
X13196641Y-13157524D01*
X13187117Y-13176571D01*
X13187117Y-13224190D01*
X13196641Y-13243238D01*
X13206165Y-13252762D01*
X13225212Y-13262286D01*
X13263307Y-13262286D01*
X13282355Y-13252762D01*
X13291879Y-13243238D01*
X13301403Y-13224190D01*
X13425212Y-13138476D02*
X13444260Y-13138476D01*
X13463307Y-13148000D01*
X13472831Y-13157524D01*
X13482355Y-13176571D01*
X13491879Y-13214667D01*
X13491879Y-13262286D01*
X13482355Y-13300381D01*
X13472831Y-13319428D01*
X13463307Y-13328952D01*
X13444260Y-13338476D01*
X13425212Y-13338476D01*
X13406165Y-13328952D01*
X13396641Y-13319428D01*
X13387117Y-13300381D01*
X13377593Y-13262286D01*
X13377593Y-13214667D01*
X13387117Y-13176571D01*
X13396641Y-13157524D01*
X13406165Y-13148000D01*
X13425212Y-13138476D01*
X13729974Y-13338476D02*
X13729974Y-13138476D01*
X13815688Y-13338476D02*
X13815688Y-13233714D01*
X13806165Y-13214667D01*
X13787117Y-13205143D01*
X13758545Y-13205143D01*
X13739498Y-13214667D01*
X13729974Y-13224190D01*
X13939498Y-13338476D02*
X13920450Y-13328952D01*
X13910926Y-13319428D01*
X13901403Y-13300381D01*
X13901403Y-13243238D01*
X13910926Y-13224190D01*
X13920450Y-13214667D01*
X13939498Y-13205143D01*
X13968069Y-13205143D01*
X13987117Y-13214667D01*
X13996641Y-13224190D01*
X14006165Y-13243238D01*
X14006165Y-13300381D01*
X13996641Y-13319428D01*
X13987117Y-13328952D01*
X13968069Y-13338476D01*
X13939498Y-13338476D01*
X14120450Y-13338476D02*
X14101403Y-13328952D01*
X14091879Y-13309905D01*
X14091879Y-13138476D01*
X14272831Y-13328952D02*
X14253784Y-13338476D01*
X14215688Y-13338476D01*
X14196641Y-13328952D01*
X14187117Y-13309905D01*
X14187117Y-13233714D01*
X14196641Y-13214667D01*
X14215688Y-13205143D01*
X14253784Y-13205143D01*
X14272831Y-13214667D01*
X14282355Y-13233714D01*
X14282355Y-13252762D01*
X14187117Y-13271809D01*
X14358545Y-13328952D02*
X14377593Y-13338476D01*
X14415688Y-13338476D01*
X14434736Y-13328952D01*
X14444260Y-13309905D01*
X14444260Y-13300381D01*
X14434736Y-13281333D01*
X14415688Y-13271809D01*
X14387117Y-13271809D01*
X14368069Y-13262286D01*
X14358545Y-13243238D01*
X14358545Y-13233714D01*
X14368069Y-13214667D01*
X14387117Y-13205143D01*
X14415688Y-13205143D01*
X14434736Y-13214667D01*
X14510926Y-13414667D02*
X14520450Y-13405143D01*
X14539498Y-13376571D01*
X14549022Y-13357524D01*
X14558545Y-13328952D01*
X14568069Y-13281333D01*
X14568069Y-13243238D01*
X14558545Y-13195619D01*
X14549022Y-13167048D01*
X14539498Y-13148000D01*
X14520450Y-13119428D01*
X14510926Y-13109905D01*
M02*
