%TF.GenerationSoftware,KiCad,Pcbnew,(6.0.7)*%
%TF.CreationDate,2024-05-09T09:52:52-04:00*%
%TF.ProjectId,ard8088,61726438-3038-4382-9e6b-696361645f70,1.1*%
%TF.SameCoordinates,Original*%
%TF.FileFunction,Soldermask,Bot*%
%TF.FilePolarity,Negative*%
%FSLAX46Y46*%
G04 Gerber Fmt 4.6, Leading zero omitted, Abs format (unit mm)*
G04 Created by KiCad (PCBNEW (6.0.7)) date 2024-05-09 09:52:52*
%MOMM*%
%LPD*%
G01*
G04 APERTURE LIST*
G04 Aperture macros list*
%AMRoundRect*
0 Rectangle with rounded corners*
0 $1 Rounding radius*
0 $2 $3 $4 $5 $6 $7 $8 $9 X,Y pos of 4 corners*
0 Add a 4 corners polygon primitive as box body*
4,1,4,$2,$3,$4,$5,$6,$7,$8,$9,$2,$3,0*
0 Add four circle primitives for the rounded corners*
1,1,$1+$1,$2,$3*
1,1,$1+$1,$4,$5*
1,1,$1+$1,$6,$7*
1,1,$1+$1,$8,$9*
0 Add four rect primitives between the rounded corners*
20,1,$1+$1,$2,$3,$4,$5,0*
20,1,$1+$1,$4,$5,$6,$7,0*
20,1,$1+$1,$6,$7,$8,$9,0*
20,1,$1+$1,$8,$9,$2,$3,0*%
G04 Aperture macros list end*
%ADD10O,1.727200X1.727200*%
%ADD11R,1.600000X1.600000*%
%ADD12O,1.600000X1.600000*%
%ADD13R,2.000000X2.000000*%
%ADD14C,2.000000*%
%ADD15RoundRect,0.250000X-0.475000X0.337500X-0.475000X-0.337500X0.475000X-0.337500X0.475000X0.337500X0*%
G04 APERTURE END LIST*
D10*
%TO.C,XA1*%
X175514000Y-69769223D03*
X172974000Y-69769223D03*
X170434000Y-69769223D03*
X167894000Y-69769223D03*
X117094000Y-114300000D03*
X124714000Y-114300000D03*
X127254000Y-114300000D03*
X183134000Y-66040000D03*
X185674000Y-66040000D03*
X139954000Y-114300000D03*
X142494000Y-114300000D03*
X145034000Y-114300000D03*
X147574000Y-114300000D03*
X150114000Y-114300000D03*
X152654000Y-114300000D03*
X155194000Y-114300000D03*
X157734000Y-114300000D03*
X162814000Y-114300000D03*
X165354000Y-114300000D03*
X167894000Y-114300000D03*
X170434000Y-114300000D03*
X172974000Y-114300000D03*
X175514000Y-114300000D03*
X178054000Y-114300000D03*
X180594000Y-114300000D03*
X113030000Y-66040000D03*
X152654000Y-66040000D03*
X150114000Y-66040000D03*
X147574000Y-66040000D03*
X145034000Y-66040000D03*
X142494000Y-66040000D03*
X139954000Y-66040000D03*
X137414000Y-66040000D03*
X134874000Y-66040000D03*
X130810000Y-66040000D03*
X128270000Y-66040000D03*
X125730000Y-66040000D03*
X123190000Y-66040000D03*
X120650000Y-66040000D03*
X118110000Y-66040000D03*
X157734000Y-66040000D03*
X160274000Y-66040000D03*
X162814000Y-66040000D03*
X165354000Y-66040000D03*
X167894000Y-66040000D03*
X170434000Y-66040000D03*
X172974000Y-66040000D03*
X175514000Y-66040000D03*
X183134000Y-68580000D03*
X185674000Y-68580000D03*
X183134000Y-71120000D03*
X185674000Y-71120000D03*
X183134000Y-73660000D03*
X185674000Y-73660000D03*
X183134000Y-76200000D03*
X185674000Y-76200000D03*
X183134000Y-78740000D03*
X185674000Y-78740000D03*
X183134000Y-81280000D03*
X185674000Y-81280000D03*
X183134000Y-83820000D03*
X185674000Y-83820000D03*
X183134000Y-86360000D03*
X185674000Y-86360000D03*
X183134000Y-88900000D03*
X185674000Y-88900000D03*
X183134000Y-91440000D03*
X185674000Y-91440000D03*
X183134000Y-93980000D03*
X185674000Y-93980000D03*
X183134000Y-96520000D03*
X185674000Y-96520000D03*
X183134000Y-99060000D03*
X185674000Y-99060000D03*
X183134000Y-101600000D03*
X185674000Y-101600000D03*
X183134000Y-104140000D03*
X185674000Y-104140000D03*
X183134000Y-106680000D03*
X185674000Y-106680000D03*
X115570000Y-66040000D03*
X129794000Y-114300000D03*
X132334000Y-114300000D03*
X183134000Y-109220000D03*
X185674000Y-109220000D03*
X119634000Y-114300000D03*
X122174000Y-114300000D03*
X107950000Y-66040000D03*
X110490000Y-66040000D03*
X134874000Y-114300000D03*
%TD*%
D11*
%TO.C,U1*%
X101369000Y-91505000D03*
D12*
X103909000Y-91505000D03*
X106449000Y-91505000D03*
X108989000Y-91505000D03*
X111529000Y-91505000D03*
X114069000Y-91505000D03*
X116609000Y-91505000D03*
X119149000Y-91505000D03*
X121689000Y-91505000D03*
X124229000Y-91505000D03*
X126769000Y-91505000D03*
X129309000Y-91505000D03*
X131849000Y-91505000D03*
X134389000Y-91505000D03*
X136929000Y-91505000D03*
X139469000Y-91505000D03*
X142009000Y-91505000D03*
X144549000Y-91505000D03*
X147089000Y-91505000D03*
X149629000Y-91505000D03*
X149629000Y-76265000D03*
X147089000Y-76265000D03*
X144549000Y-76265000D03*
X142009000Y-76265000D03*
X139469000Y-76265000D03*
X136929000Y-76265000D03*
X134389000Y-76265000D03*
X131849000Y-76265000D03*
X129309000Y-76265000D03*
X126769000Y-76265000D03*
X124229000Y-76265000D03*
X121689000Y-76265000D03*
X119149000Y-76265000D03*
X116609000Y-76265000D03*
X114069000Y-76265000D03*
X111529000Y-76265000D03*
X108989000Y-76265000D03*
X106449000Y-76265000D03*
X103909000Y-76265000D03*
X101369000Y-76265000D03*
%TD*%
D11*
%TO.C,U2*%
X122959000Y-110540000D03*
D12*
X125499000Y-110540000D03*
X128039000Y-110540000D03*
X130579000Y-110540000D03*
X133119000Y-110540000D03*
X135659000Y-110540000D03*
X138199000Y-110540000D03*
X140739000Y-110540000D03*
X143279000Y-110540000D03*
X145819000Y-110540000D03*
X145819000Y-102920000D03*
X143279000Y-102920000D03*
X140739000Y-102920000D03*
X138199000Y-102920000D03*
X135659000Y-102920000D03*
X133119000Y-102920000D03*
X130579000Y-102920000D03*
X128039000Y-102920000D03*
X125499000Y-102920000D03*
X122959000Y-102920000D03*
%TD*%
D13*
%TO.C,BZ1*%
X165100000Y-74930000D03*
D14*
X165100000Y-82530000D03*
%TD*%
D15*
%TO.C,C2*%
X118626888Y-102925286D03*
X118626888Y-105000286D03*
%TD*%
M02*
